<svg width="752" height="1512" xmlns="http://www.w3.org/2000/svg" xmlns:xlink="http://www.w3.org/1999/xlink" xml:space="preserve" overflow="hidden"><g transform="translate(-3272 -417)"><g><path d="M3649.5 553.5C3655.65 615.069 3643.34 668.44 3649.5 735.381 3655.66 802.323 3644.23 852.638 3649.5 889.883 3654.77 927.127 3648.61 1004.26 3649.5 1112.83 3650.39 1221.4 3631.84 1252.29 3649.5 1294.72 3667.16 1337.14 3630.94 1425.98 3649.5 1476.6 3668.06 1527.21 3624.5 1606.45 3649.5 1699.55 3674.5 1792.65 3643.57 1874.1 3649.5 1922.5 3630.14 1927.19 3619.36 1919.11 3601.5 1922.5 3586.1 1854.27 3601.91 1816.37 3601.5 1754.31 3601.09 1692.25 3603.16 1600.76 3601.5 1558.74 3599.84 1516.71 3623.08 1436.84 3601.5 1363.17 3579.92 1289.49 3614.78 1225.26 3601.5 1181.28 3588.22 1137.31 3616.29 1015.66 3601.5 958.333 3586.71 901.002 3615.02 801.711 3601.5 735.381 3587.98 669.052 3610.38 616.515 3601.5 553.5 3622.25 548.455 3632.56 554.733 3649.5 553.5Z" fill="#747474" fill-rule="evenodd" fill-opacity="1"/><path d="M3649.5 553.5C3670.79 598.027 3629.6 650.021 3649.5 735.381 3669.4 820.741 3647.93 850.966 3649.5 889.883 3651.07 928.799 3641.29 1020.99 3649.5 1058.07 3657.71 1095.16 3625.05 1207.84 3649.5 1267.34 3673.95 1326.83 3633.59 1411.11 3649.5 1449.22 3665.41 1487.32 3632.55 1558.95 3649.5 1617.41 3666.45 1675.87 3645.79 1796.77 3649.5 1922.5 3635.61 1926.8 3612.3 1920.92 3601.5 1922.5 3579.06 1861.55 3611.3 1789.2 3601.5 1726.93 3591.7 1664.66 3607.85 1606.91 3601.5 1558.74 3595.15 1510.56 3603.29 1411.56 3601.5 1335.79 3599.71 1260.01 3612.32 1239.46 3601.5 1153.9 3590.68 1068.35 3612.12 1062.96 3601.5 999.403 3590.88 935.843 3612.99 882.114 3601.5 790.141 3590.01 698.17 3610.21 656.547 3601.5 553.5 3622.4 549.512 3633.2 555.924 3649.5 553.5Z" stroke="#595959" stroke-width="6.875" stroke-linecap="butt" stroke-linejoin="miter" stroke-miterlimit="8" stroke-opacity="1" fill="none" fill-rule="evenodd"/><path d="M3283 798.5C3245.97 573.249 3424.94 440.314 3649.5 432 3878.08 437.508 3965.96 597.679 4016 798.5 4008.68 1008.06 3845.8 1198.77 3649.5 1165 3429.21 1155.22 3291.4 1004.92 3283 798.5Z" fill="#FF7210" fill-rule="evenodd" fill-opacity="1"/><path d="M3283 798.5C3339.1 602.743 3468.98 386.937 3649.5 432 3815.42 426.412 3981.61 628.468 4016 798.5 4014.86 990.057 3837.83 1184.58 3649.5 1165 3494.13 1191.33 3304.81 1006.16 3283 798.5Z" stroke="#FF7210" stroke-width="13.75" stroke-linecap="butt" stroke-linejoin="miter" stroke-miterlimit="8" stroke-opacity="1" fill="none" fill-rule="evenodd"/></g></g></svg>