<svg width="1728" height="1077" xmlns="http://www.w3.org/2000/svg" xmlns:xlink="http://www.w3.org/1999/xlink" xml:space="preserve" overflow="hidden"><g transform="translate(-2067 -1145)"><g><path d="M2092 1315.5C2086.13 1231.52 2151.46 1172.14 2237.55 1170 2324.67 1161.13 2362.36 1189.25 2455.77 1170 2549.17 1150.75 2584.21 1182.11 2649.73 1170 2715.26 1157.89 2751.64 1174.6 2835.62 1170 2919.59 1165.4 3001.65 1189.89 3045.75 1170L3045.75 1170C3131.13 1154.04 3190.42 1184.05 3246.04 1170 3301.66 1155.95 3401.01 1186.46 3454.5 1170 3510.28 1161.05 3526.2 1181.57 3581.45 1170 3663.98 1184.86 3709.95 1234.17 3727 1315.5 3739.39 1374.97 3711.03 1424.08 3727 1493.74 3742.97 1563.4 3720.15 1603.08 3727 1679.25 3733.38 1722.54 3715.21 1735.52 3727 1788.37 3738.79 1841.23 3723.39 1857.89 3727 1897.5L3727 1897.5C3718.7 1970.04 3651.34 2027.32 3581.45 2043 3526.78 2047.49 3491.9 2041.22 3454.5 2043 3490.22 2056.27 3515.53 2095.66 3560.44 2119.36 3605.36 2143.07 3643.91 2196.92 3679.91 2205.47 3612.04 2206.32 3590.77 2172.03 3527.71 2166.48 3464.65 2160.93 3424.8 2127.87 3381.86 2129.11 3338.91 2130.35 3299.59 2098.82 3216.97 2086.87 3134.36 2074.91 3121.17 2043.38 3045.75 2043 2966.24 2061.97 2900.64 2040.95 2843.7 2043 2786.76 2045.05 2718.75 2031.76 2657.81 2043 2596.88 2054.24 2530.12 2018.3 2447.68 2043 2365.24 2067.7 2342.4 2031.49 2237.55 2043 2155.06 2049.56 2085.42 1957.16 2092 1897.5L2092 1897.5C2079.41 1847.4 2094.59 1833.25 2092 1788.37 2089.41 1743.5 2096.58 1724.95 2092 1679.25 2072.31 1642.29 2101.57 1582.65 2092 1508.29 2082.43 1433.93 2093.16 1397.43 2092 1315.5Z" stroke="#FF7210" stroke-width="27.5" stroke-linecap="butt" stroke-linejoin="miter" stroke-miterlimit="8" stroke-opacity="1" fill="none" fill-rule="evenodd"/></g></g></svg>